<svg xmlns="http://www.w3.org/2000/svg" version="1.1" xmlns:xlink="http://www.w3.org/1999/xlink" width="512" height="512"><svg xmlns="http://www.w3.org/2000/svg" version="1.1" xmlns:xlink="http://www.w3.org/1999/xlink" width="512" height="512"><svg version="1.1" id="BioCosmos_Logo_Transparent" xmlns="http://www.w3.org/2000/svg" xmlns:xlink="http://www.w3.org/1999/xlink" width="512" height="512" viewBox="210 210 600 600" xml:space="preserve">
  <defs>
    <mask id="dolphin-cutout">
      <rect x="0" y="0" width="1024" height="1024" fill="white"></rect>
      
      <g fill="black">
        <path d="M505.483,568.124 C477.126,582.592 446.719,593.278 421.051,613.673 C424.043,614.506 426.722,614.9 429.077,615.991 C432.413,617.537 434.818,616.7 437.695,614.667 C443.117,610.837 448.709,607.126 454.62,604.136 C469.601,596.558 484.988,589.771 499.862,581.998 C522.757,570.035 543.462,555.076 560.172,535.084 C561.313,533.72 562.212,532.153 563.223,530.681 C545.155,544.901 526.343,557.386 505.483,568.124 Z M522.177,582.724 C507.668,591.55 493.159,600.375 477.366,609.982 C500.049,605.256 519.546,596.411 537.431,584.003 C570.939,560.757 593.237,529.484 603.767,489.955 C584.793,527.797 557.239,558.083 522.177,582.724 Z"></path>
        <path d="M592.240,452.333 C597.675,449.251 602.878,446.455 608.272,443.558 C611.532,459.907 602.732,481.0 589.510,489.542 C588.128,490.435 586.640,491.286 585.080,491.757 C582.205,492.624 580.374,491.444 580.675,488.339 C581.409,480.740 580.475,472.945 585.870,466.128 C588.849,462.363 590.021,457.169 592.240,452.333 Z"></path>
        <path d="M505.827,567.978 C526.343,557.386 545.155,544.901 563.223,530.681 C562.212,532.153 561.313,533.72 560.172,535.084 C543.462,555.076 522.757,570.035 499.862,581.998 C484.988,589.771 469.601,596.558 454.620,604.136 C448.709,607.126 443.117,610.837 437.695,614.667 C434.818,616.7 432.413,617.537 429.077,615.991 C426.722,614.9 424.043,614.506 421.051,613.673 C446.719,593.278 477.126,582.592 505.827,567.978 Z"></path>
        <path d="M522.465,582.508 C557.239,558.083 584.793,527.797 603.767,489.955 C593.237,529.484 570.939,560.757 537.431,584.003 C519.546,596.411 500.049,605.256 477.366,609.982 C493.159,600.375 507.668,591.55 522.465,582.508 Z"></path>
        <path d="M446.080,578.085 C460.352,564.096 478.095,559.996 497.058,558.938 C478.689,567.464 460.320,575.990 441.951,584.516 C441.719,584.203 441.486,583.891 441.254,583.579 C442.779,581.831 444.304,580.084 446.080,578.085 Z"></path>
      </g>
    </mask>

    <clipPath id="circle-clip">
       <circle cx="512" cy="512" r="500"></circle>
    </clipPath>
  </defs>

  <g clip-path="url(#circle-clip)">
     <path fill="#1E5C90" mask="url(#dolphin-cutout)" d="M634.506,782.518 C588.352,803.053 540.403,811.394 490.436,807.768 C370.281,799.048 266.528,716.439 230.899,601.293 C189.58,467.758 245.923,324.383 367.183,255.642 C420.23,225.57 477.498,213.042 538.288,218.221 C654.552,228.124 755.98,306.003 792.238,417.007 C826.017,520.42 808.792,616.419 740.335,701.821 C711.982,737.192 676.125,763.516 634.506,782.518 Z M601.336,348.266 C593.192,348.707 584.992,348.692 576.913,349.671 C548.68,353.091 522.065,361.935 496.851,374.93 C490.235,378.34 483.972,379.229 476.747,377.098 C463.386,373.159 449.643,371.609 435.715,373.057 C423.324,374.345 411.322,377.045 401.381,385.193 C399.772,386.512 399.075,388.942 397.957,390.858 C399.702,391.619 401.384,392.629 403.205,393.096 C411.182,395.141 418.9,397.664 424.969,403.612 C432.036,410.537 432.532,418.126 426.436,425.864 C424.89,427.827 423.269,429.73 421.7,431.676 C401.652,456.531 387.253,484.2 379.857,515.39 C370.99,552.788 371.399,589.963 381.928,627.028 C382.784,630.044 382.189,633.942 381.039,636.962 C378.62,643.316 375.002,649.211 372.555,655.557 C365.432,674.028 364.018,692.793 371.04,711.671 C372.178,714.73 374.044,717.518 375.574,720.431 C376.85,719.117 376.957,718.328 377.082,717.541 C379.225,704.04 382.539,691.07 393.196,681.346 C400.154,674.997 406.551,668.282 406.712,657.615 C413.853,660.683 419.651,658.731 425.102,654.964 C433.572,649.111 442.831,647.763 452.747,650.006 C454.318,650.362 455.905,650.647 457.964,651.061 C455.597,643.261 450.297,638.595 444.301,634.632 C433.486,627.483 421.31,624.324 408.587,622.874 C401.949,622.118 401.935,622.08 402.484,615.643 C402.795,611.995 402.952,608.315 403.56,604.713 C408.324,576.497 421.837,552.841 441.532,532.468 C460.026,513.336 482.25,499.259 505.024,485.98 C516.342,479.38 527.868,473.138 539.965,466.361 C539.218,474.587 536.43,481.061 532.41,487.059 C530.094,490.515 527.422,493.743 525.251,497.284 C523.066,500.846 524.381,503.476 528.501,503.197 C532.395,502.933 536.467,502.034 540.012,500.426 C558.23,492.161 572.457,478.928 578.901,460.204 C583.355,447.266 591.079,441.015 603.145,437.873 C604.907,437.414 606.587,436.64 608.307,436.017 C624.405,430.191 640.443,424.194 656.628,418.621 C663.491,416.258 670.629,414.654 677.699,412.944 C686.226,410.882 694.936,409.472 703.297,406.902 C705.645,406.181 708.612,402.276 708.471,400.007 C708.304,397.339 705.34,394.568 703.049,392.416 C701.739,391.186 699.386,390.964 697.449,390.523 C691.931,389.266 686.242,388.561 680.907,386.779 C677.869,385.764 674.57,383.623 672.813,381.026 C666.684,371.97 658.942,364.93 649.43,359.683 C634.747,351.584 618.728,349.071 601.336,348.266 Z"></path>
     
     <path fill="#2C6394" d="M629.460,384.261 C630.549,383.466 631.451,382.405 632.194,382.506 C634.627,382.837 637.173,383.268 639.290,384.389 C639.891,384.707 639.684,388.648 638.976,388.962 C636.615,390.008 633.683,390.961 631.303,390.436 C628.900,389.906 627.364,387.416 629.460,384.261 Z"></path>
  </g>
</svg></svg><style>@media (prefers-color-scheme: light) { :root { filter: none; } }
@media (prefers-color-scheme: dark) { :root { filter: none; } }
</style></svg>